<?xml version="1.0" encoding="utf-8"?>
<!-- Generator: Adobe Illustrator 22.1.0, SVG Export Plug-In . SVG Version: 6.00 Build 0)  -->
<svg version="1.1"
	 id="svg8" inkscape:version="0.92.4 (5da689c313, 2019-01-14)" sodipodi:docname="newTripAntero.svg" xmlns:cc="http://creativecommons.org/ns#" xmlns:dc="http://purl.org/dc/elements/1.1/" xmlns:inkscape="http://www.inkscape.org/namespaces/inkscape" xmlns:rdf="http://www.w3.org/1999/02/22-rdf-syntax-ns#" xmlns:sodipodi="http://sodipodi.sourceforge.net/DTD/sodipodi-0.dtd" xmlns:svg="http://www.w3.org/2000/svg"
	 xmlns="http://www.w3.org/2000/svg" xmlns:xlink="http://www.w3.org/1999/xlink" x="0px" y="0px" viewBox="0 0 595.3 841.9"
	 style="enable-background:new 0 0 595.3 841.9;" xml:space="preserve">
<style type="text/css">
	.st0{fill:none;stroke:#000000;stroke-width:5;stroke-linejoin:round;stroke-miterlimit:10;}
</style>
<sodipodi:namedview  bordercolor="#666666" borderopacity="1.0" id="base" inkscape:current-layer="layer1" inkscape:cx="121.03322" inkscape:cy="509.09078" inkscape:document-units="px" inkscape:guide-bbox="true" inkscape:object-nodes="false" inkscape:pageopacity="0.0" inkscape:pageshadow="2" inkscape:window-height="746" inkscape:window-maximized="1" inkscape:window-width="1366" inkscape:window-x="-8" inkscape:window-y="-8" inkscape:zoom="1" pagecolor="#ffffff" showborder="false" showgrid="false" showguides="true">
	</sodipodi:namedview>
<path id="path5505" inkscape:connector-curvature="0" class="st0" d="M163.7,349.7C62.8,457.7,42.1,554,118.2,564.8
	C151.1,569.3,251,531,251,531s-39.6,5.9-55.8,3.6c-80.1-11.3-66.2-104.4,29.7-207.5c63.9-67.5,150.8-126,227.3-152.1
	C372.5,183.2,251,257,163.7,349.7z"/>
<g>
	<path class="st0" d="M323.9,604.4c17.1-5.9,69.3-68,69.3-68c-0.6-7.9-5.4-19.3-12.5-32.1c-21.3,9-43.1,16.8-62.3,21.9
		C331.9,546.7,323.9,604.4,323.9,604.4z"/>
	<path class="st0" d="M283.4,396c0,0-71.6,37.8-81,54c0,0,55.2,4.2,73.9,20.6c10.7-16.5,24.8-34.6,39.9-51.9
		C303.5,407.1,291.9,398.6,283.4,396z"/>
	<path class="st0" d="M324.3,440.6"/>
	<path class="st0" d="M316.1,418.8c25-28.7,52.4-55.2,70.8-68.7c23.4-17.1,48.2-23.9,69.3-23.9c20.7,0,39.6,7.7,50,22.1
		c21.2,26.6,12.6,73.8-33.3,107.6c-19.2,13.9-55.1,32.9-92.1,48.4"/>
	<path class="st0" d="M276.2,470.7c-15.9,24.6-24.2,45.7-16.3,55.4c7.7,9.3,30.3,7.6,58.5,0.1"/>
</g>
<path class="st0" d="M478.7,360.5c-18.5-18.5-43.7-14.4-62.1,3.6c-5.9,5.9-10.4,14.9-14,25.2c-8.1,22.1-11.3,47.7-11.3,47.7
	s28.4,2.7,53.1-1.8c11.7-2.3,23-5.9,30.2-12.6C492.6,404.6,497.1,378.9,478.7,360.5z M448.5,413.6c-14,0-25.2-11.3-25.2-25.2
	c0-14,11.3-25.2,25.2-25.2s25.2,11.3,25.2,25.2C473.7,402.3,462.5,413.6,448.5,413.6z"/>
</svg>
